<svg width="24" height="24" viewBox="0 0 24 24" fill="none" xmlns="http://www.w3.org/2000/svg">
<path d="M4.98292 7.1968C6.19132 7.1968 7.17092 6.2172 7.17092 5.0088C7.17092 3.8004 6.19132 2.8208 4.98292 2.8208C3.77452 2.8208 2.79492 3.8004 2.79492 5.0088C2.79492 6.2172 3.77452 7.1968 4.98292 7.1968Z" fill="white"/>
<path d="M9.23673 8.85518V20.9942H13.0057V14.9912C13.0057 13.4072 13.3037 11.8732 15.2677 11.8732C17.2047 11.8732 17.2287 13.6842 17.2287 15.0912V20.9952H20.9997V14.3382C20.9997 11.0682 20.2957 8.55518 16.4737 8.55518C14.6387 8.55518 13.4087 9.56218 12.9057 10.5152H12.8547V8.85518H9.23673ZM3.09473 8.85518H6.86973V20.9942H3.09473V8.85518Z" fill="white"/>
</svg>
